<svg xmlns="http://www.w3.org/2000/svg" width="32" height="32" viewBox="0 0 32 32">
  <path fill="#7c8ea5" d="M25.333 4H20V2.667h5.333a2.667 2.667 0 0 1 2.667 2.666V10h-1.333V5.333A1.333 1.333 0 0 0 25.333 4zM6.667 4A1.333 1.333 0 0 0 5.333 5.333V10H4V5.333A2.667 2.667 0 0 1 6.667 2.667H12V4H6.667zM25.333 28H20v1.333h5.333A2.667 2.667 0 0 0 28 26.667V22h-1.333v4.667a1.333 1.333 0 0 1-1.334 1.333zM6.667 28a1.333 1.333 0 0 1-1.334-1.333V22H4v4.667A2.667 2.667 0 0 0 6.667 29.333H12V28H6.667z"/>
  <path fill="#7c8ea5" d="M22.667 10.667h-4V12h4a2 2 0 0 1 2 2v4h1.333v-4a3.333 3.333 0 0 0-3.333-3.333zM9.333 10.667a3.333 3.333 0 0 0-3.333 3.333v4h1.333v-4a2 2 0 0 1 2-2h4v-1.333h-4zM22.667 21.333h-4v1.334h4a2 2 0 0 1 2 2v4h1.333v-4a3.333 3.333 0 0 0-3.333-3.334zM9.333 21.333a3.333 3.333 0 0 0-3.333 3.334v4h1.333v-4a2 2 0 0 1 2-2h4v-1.334h-4z"/>
  <circle fill="#7c8ea5" cx="16" cy="16" r="4"/>
</svg>
